#!OML:ASF X:\für Bonn\!DataBase\2005_08_10_Bjorn_Final\c3d\bjorn.ASF
:FULLY-SPECIFIED
:DEGREES
405
root 0.438441 2.15219 17.6214 -428.523 -171.94 -710.87
lowerback 40.0352 4.87463 8.64988
upperback 27.7359 -3.72528 3.98296
thorax 12.5823 -6.93806 -0.485823
lowerneck 19.9271 -1.36848 -2.72042
upperneck 12.4705 -4.62663 -2.53139
head 0.746267 -3.3146 -0.13146
rclavicle 1.33186e-014 -7.95139e-016
rhumerus -225.799 -206.578 106.945
rradius 78.996
rwrist -67.5428
rhand -12.889 -23.0933
rfingers 7.12502
rthumb 13.2002 -52.6554
lclavicle 1.33186e-014 -7.95139e-016
lhumerus -82.8076 -46.8874 109.959
lradius 86.8875
lwrist 67.0566
lhand -2.01933 -329.522
lfingers 7.12502
lthumb 23.6549 59.0431
rfemur -90.9193 -56.9072 10.216
rtibia 137.259
rfoot 26.1872 26.689
rtoes -0.354726
lfemur 145.874 167.99 159.629
ltibia 25.652
lfoot 15.2085 8.20389
ltoes -13.3176
406
root 0.435787 2.15031 17.6161 -428.459 -171.968 -710.808
lowerback 39.8945 4.91319 8.57151
upperback 27.7408 -3.68066 3.96071
thorax 12.6233 -6.9073 -0.487666
lowerneck 20.0083 -1.43103 -2.80796
upperneck 12.3076 -4.7157 -2.44638
head 0.684928 -3.35194 -0.0809209
rclavicle 2.98177e-015 2.3059e-014
rhumerus -223.984 -206.254 108.292
rradius 78.64
rwrist -67.3092
rhand -12.9941 -23.1219
rfingers 7.12502
rthumb 13.0989 -52.6906
lclavicle 2.98177e-015 2.3059e-014
lhumerus -81.763 -48.4269 108.797
lradius 87.2258
lwrist 64.8748
lhand 0.314235 -331.78
lfingers 7.12502
lthumb 25.8913 56.4767
rfemur -91.0947 -57.0057 10.3645
rtibia 137.297
rfoot 26.2356 26.665
rtoes -0.173252
lfemur 146.351 168.305 159.758
ltibia 24.8499
lfoot 14.9351 8.81657
ltoes -12.69
407
root 0.433047 2.14866 17.61 -428.398 -171.988 -710.756
lowerback 39.7448 4.95633 8.48317
upperback 27.7436 -3.62779 3.93207
thorax 12.6634 -6.87074 -0.492921
lowerneck 20.1213 -1.49473 -2.91648
upperneck 12.1349 -4.81424 -2.33727
head 0.616779 -3.39523 -0.017857
rclavicle 1.88845e-014 -1.59028e-014
rhumerus -222.138 -205.952 109.597
rradius 78.1437
rwrist -67.0864
rhand -13.0727 -23.0074
rfingers 7.12502
rthumb 13.0231 -52.5809
lclavicle 1.88845e-014 -1.59028e-014
lhumerus -80.4102 -50.023 107.36
lradius 87.4726
lwrist 62.6023
lhand 2.56171 -333.688
lfingers 7.12502
lthumb 28.0417 54.236
rfemur -91.2698 -57.1062 10.5117
rtibia 137.333
rfoot 26.2385 26.6821
rtoes -0.16478
lfemur 146.859 168.693 159.916
ltibia 24.086
lfoot 14.6192 9.60395
ltoes -11.4059
408
root 0.42991 2.14661 17.6043 -428.369 -171.995 -710.705
lowerback 39.6312 4.99623 8.36177
upperback 27.7345 -3.58648 3.91142
thorax 12.6759 -6.84898 -0.465708
lowerneck 20.2656 -1.55694 -3.04777
upperneck 11.9346 -4.91585 -2.28713
head 0.533897 -3.44009 0.032164
rclavicle 2.66371e-014 2.22639e-014
rhumerus -220.231 -205.748 110.875
rradius 77.5035
rwrist -66.7697
rhand -13.0942 -22.81
rfingers 7.12502
rthumb 13.0024 -52.3848
lclavicle 2.66371e-014 2.22639e-014
lhumerus -78.6377 -51.5988 105.632
lradius 87.5363
lwrist 60.2506
lhand 4.71951 -335.335
lfingers 7.12502
lthumb 30.1024 52.2334
rfemur -91.3628 -57.2166 10.5606
rtibia 137.37
rfoot 26.2586 26.6989
rtoes -0.016856
lfemur 147.412 169.087 160.068
ltibia 23.3396
lfoot 14.2755 10.428
ltoes -9.79913
409
root 0.427851 2.1444 17.5982 -428.322 -172.016 -710.652
lowerback 39.4749 5.04105 8.25832
upperback 27.7228 -3.52223 3.88421
thorax 12.6986 -6.80467 -0.461239
lowerneck 20.4601 -1.63651 -3.16971
upperneck 11.7377 -5.04599 -2.21969
head 0.445042 -3.5002 0.089025
rclavicle -1.11319e-014 2.38542e-014
rhumerus -218.334 -205.531 112.076
rradius 76.7397
rwrist -66.3432
rhand -13.0249 -22.4315
rfingers 7.12502
rthumb 13.0692 -52.002
lclavicle -1.11319e-014 2.38542e-014
lhumerus -76.5227 -53.264 103.588
lradius 87.4946
lwrist 57.9471
lhand 6.71829 -336.961
lfingers 7.12502
lthumb 32.0075 50.2433
rfemur -91.5202 -57.2956 10.6727
rtibia 137.415
rfoot 26.3008 26.6846
rtoes 0.111824
lfemur 147.941 169.488 160.239
ltibia 22.6155
lfoot 13.9331 11.2865
ltoes -7.70402
410
root 0.425346 2.14209 17.5931 -428.319 -172.03 -710.597
lowerback 39.3485 5.08287 8.12924
upperback 27.7101 -3.47504 3.8653
thorax 12.7105 -6.77949 -0.429248
lowerneck 20.6923 -1.69842 -3.34472
upperneck 11.4997 -5.16503 -2.15732
head 0.337698 -3.55532 0.154795
rclavicle -2.56432e-014 4.77083e-015
rhumerus -216.383 -205.385 113.227
rradius 75.8477
rwrist -65.7395
rhand -13.0132 -21.9214
rfingers 7.12502
rthumb 13.0804 -51.4912
lclavicle -2.56432e-014 4.77083e-015
lhumerus -73.9928 -54.8244 101.191
lradius 87.3392
lwrist 55.4359
lhand 8.63049 -338.462
lfingers 7.12502
lthumb 33.8263 48.3601
rfemur -91.5687 -57.3733 10.6968
rtibia 137.448
rfoot 26.3204 26.6721
rtoes 0.161832
lfemur 148.512 169.905 160.415
ltibia 21.9037
lfoot 13.6032 12.1421
ltoes -5.53274
411
root 0.422472 2.14002 17.5875 -428.304 -172.04 -710.554
lowerback 39.1465 5.14307 8.01868
upperback 27.7384 -3.41349 3.83223
thorax 12.7994 -6.74187 -0.436748
lowerneck 20.8492 -1.7888 -3.48296
upperneck 11.2928 -5.30618 -2.06925
head 0.252004 -3.61904 0.221898
rclavicle 1.2921e-014 2.14687e-014
rhumerus -214.422 -205.186 114.315
rradius 74.9635
rwrist -65.0238
rhand -13.057 -21.478
rfingers 7.12502
rthumb 13.0383 -51.0506
lclavicle 1.2921e-014 2.14687e-014
lhumerus -70.8262 -56.3712 98.2037
lradius 87.0513
lwrist 52.771
lhand 10.5605 -339.54
lfingers 7.12502
lthumb 35.6578 46.86
rfemur -91.6452 -57.4666 10.731
rtibia 137.485
rfoot 26.3359 26.7221
rtoes 0.182837
lfemur 149.06 170.371 160.592
ltibia 21.212
lfoot 13.2959 12.9964
ltoes -3.40179
412
root 0.420093 2.13689 17.5834 -428.32 -172.055 -710.485
lowerback 38.982 5.1893 7.89853
upperback 27.7551 -3.37402 3.81754
thorax 12.8633 -6.7236 -0.410582
lowerneck 20.9618 -1.85434 -3.71789
upperneck 11.1256 -5.43794 -1.97806
head 0.188459 -3.68443 0.303803
rclavicle -1.45113e-014 2.38542e-014
rhumerus -212.339 -205.106 115.414
rradius 73.9479
rwrist -64.2358
rhand -13.1611 -21.056
rfingers 7.12502
rthumb 12.9379 -50.6349
lclavicle -1.45113e-014 2.38542e-014
lhumerus -67.1235 -57.718 94.7739
lradius 86.6322
lwrist 50.1541
lhand 12.4569 -340.335
lfingers 7.12502
lthumb 37.4528 45.6108
rfemur -91.6365 -57.5366 10.7003
rtibia 137.517
rfoot 26.3945 26.6904
rtoes 0.348899
lfemur 149.589 170.744 160.724
ltibia 20.5406
lfoot 13.2051 13.5602
ltoes -2.34693
413
root 0.417865 2.13453 17.5794 -428.348 -172.072 -710.437
lowerback 38.839 5.2495 7.77827
upperback 27.7551 -3.3024 3.80326
thorax 12.8986 -6.68569 -0.386067
lowerneck 21.0762 -1.92847 -3.99936
upperneck 10.9828 -5.59576 -1.82502
head 0.136169 -3.76669 0.414438
rclavicle 6.55989e-015 -3.73715e-014
rhumerus -210.262 -205.017 116.464
rradius 72.8168
rwrist -63.3807
rhand -13.2321 -20.5463
rfingers 7.12502
rthumb 12.8694 -50.1295
lclavicle 6.55989e-015 -3.73715e-014
lhumerus -63.0898 -58.9622 91.0532
lradius 86.0408
lwrist 47.7907
lhand 14.2807 -341.119
lfingers 7.12502
lthumb 39.1742 44.3513
rfemur -91.6084 -57.6148 10.6563
rtibia 137.546
rfoot 26.4509 26.6568
rtoes 0.561542
lfemur 150.1 171.126 160.854
ltibia 19.8963
lfoot 13.1798 14.1026
ltoes -1.53662
414
root 0.4163 2.1315 17.5769 -428.378 -172.093 -710.381
lowerback 38.6696 5.30572 7.66742
upperback 27.7752 -3.24444 3.77869
thorax 12.9688 -6.65453 -0.37976
lowerneck 21.0885 -1.99824 -4.31085
upperneck 10.9008 -5.74902 -1.66856
head 0.120938 -3.84945 0.527032
rclavicle -2.98177e-015 3.4191e-014
rhumerus -208.123 -204.96 117.487
rradius 71.6457
rwrist -62.484
rhand -13.3469 -20.0246
rfingers 7.12502
rthumb 12.7588 -49.6147
lclavicle -2.98177e-015 3.4191e-014
lhumerus -58.5397 -60.0541 86.8957
lradius 85.19
lwrist 45.6539
lhand 16.2091 -341.93
lfingers 7.12502
lthumb 40.9885 42.99
rfemur -91.5787 -57.7249 10.622
rtibia 137.583
rfoot 26.4672 26.6622
rtoes 0.630324
lfemur 150.561 171.435 160.947
ltibia 19.2731
lfoot 13.3332 14.4596
ltoes -1.8911
415
root 0.414423 2.12882 17.5746 -428.418 -172.121 -710.342
lowerback 38.5112 5.37133 7.56115
upperback 27.7868 -3.1652 3.75296
thorax 13.0246 -6.60992 -0.379097
lowerneck 21.0628 -2.07093 -4.63916
upperneck 10.8582 -5.90953 -1.48169
head 0.126739 -3.93836 0.650748
rclavicle -2.78299e-015 3.33958e-014
rhumerus -206.022 -204.825 118.478
rradius 70.4848
rwrist -61.4904
rhand -13.402 -19.6838
rfingers 7.12502
rthumb 12.7056 -49.2773
lclavicle -2.78299e-015 3.33958e-014
lhumerus -53.5637 -61.0284 82.4107
lradius 84.1155
lwrist 43.7367
lhand 18.1621 -342.728
lfingers 7.12502
lthumb 42.8192 41.5818
rfemur -91.4841 -57.7706 10.5307
rtibia 137.604
rfoot 26.5146 26.6089
rtoes 0.739719
lfemur 151.016 171.732 161.039
ltibia 18.6678
lfoot 13.4729 14.817
ltoes -2.74555
416
root 0.412806 2.12531 17.5732 -428.479 -172.128 -710.303
lowerback 38.383 5.43252 7.43829
upperback 27.7978 -3.0988 3.72114
thorax 13.069 -6.577 -0.371896
lowerneck 20.9677 -2.14358 -4.96294
upperneck 10.8763 -6.0675 -1.33497
head 0.162887 -4.02835 0.757212
rclavicle 6.40087e-014 -2.70347e-014
rhumerus -204.021 -204.59 119.411
rradius 69.3758
rwrist -60.2614
rhand -13.317 -19.4736
rfingers 7.12502
rthumb 12.7877 -49.0619
lclavicle 6.40087e-014 -2.70347e-014
lhumerus -48.2066 -61.7219 77.6462
lradius 82.7894
lwrist 41.9866
lhand 20.1292 -343.562
lfingers 7.12502
lthumb 44.6554 40.0717
rfemur -91.3826 -57.8332 10.3943
rtibia 137.638
rfoot 26.5626 26.5777
rtoes 0.876901
lfemur 151.472 172.022 161.104
ltibia 18.0762
lfoot 13.5408 15.2083
ltoes -3.94643
417
root 0.410819 2.12202 17.5717 -428.537 -172.14 -710.262
lowerback 38.2332 5.49546 7.3
upperback 27.8064 -3.03237 3.70196
thorax 13.1176 -6.54653 -0.343484
lowerneck 20.8795 -2.21017 -5.28133
upperneck 10.8774 -6.21388 -1.23409
head 0.191277 -4.11084 0.84818
rclavicle -1.35174e-014 -7.95139e-016
rhumerus -202.092 -204.356 120.327
rradius 68.3187
rwrist -58.9795
rhand -13.1749 -19.3901
rfingers 7.12502
rthumb 12.9246 -48.9698
lclavicle -1.35174e-014 -7.95139e-016
lhumerus -42.5284 -62.0847 72.627
lradius 81.3146
lwrist 40.8508
lhand 22.0334 -344.149
lfingers 7.12502
lthumb 46.4244 38.7664
rfemur -91.2615 -57.8965 10.2489
rtibia 137.67
rfoot 26.6116 26.5305
rtoes 0.995247
lfemur 151.897 172.296 161.164
ltibia 17.4982
lfoot 13.6317 15.6478
ltoes -5.31032
